<svg xmlns="http://www.w3.org/2000/svg" width="48" height="48" viewBox="0 0 48 48" fill="none">
  <defs>
    <linearGradient id="ag" x1="6" y1="4" x2="42" y2="44" gradientUnits="userSpaceOnUse">
      <stop offset="0" stop-color="#6562E7"/>
      <stop offset="0.5" stop-color="#A5A6F6"/>
      <stop offset="1" stop-color="#73DFD7"/>
    </linearGradient>
  </defs>
  <path d="M24 2 C 25.5 14 34 22.5 46 24 C 34 25.5 25.5 34 24 46 C 22.5 34 14 25.5 2 24 C 14 22.5 22.5 14 24 2 Z" fill="#73DFD7" opacity="0.55" transform="rotate(45 24 24) translate(24 24) scale(0.8) translate(-24 -24)"/>
  <path d="M24 2 C 25.5 14 34 22.5 46 24 C 34 25.5 25.5 34 24 46 C 22.5 34 14 25.5 2 24 C 14 22.5 22.5 14 24 2 Z" fill="url(#ag)"/>
  <path d="M24 16.5 L 31.5 24 L 24 31.5 L 16.5 24 Z" fill="#FFFFFF"/>
</svg>
